<svg id="Camada_1" data-name="Camada 1" xmlns="http://www.w3.org/2000/svg" viewBox="0 0 48 48"><defs><style>.cls-1{fill:#323238;}.cls-2{fill:#fff;fill-rule:evenodd;}</style></defs><title>linkedin2</title><rect class="cls-1" width="48" height="48"/><path class="cls-2" d="M72.5,57.81v16h5.17v-16Zm-.3-5.1a2.89,2.89,0,1,0,2.89-2.85A2.87,2.87,0,0,0,72.2,52.71ZM91.34,73.86H96.2V64c0-5-3-6.6-5.92-6.6a5.48,5.48,0,0,0-4.86,2.7V57.81H80.55v16h5.17V65.31a3.15,3.15,0,0,1,3-3.45c1.52,0,2.58.75,2.58,3.3Z" transform="translate(-60.2 -37.86)"/></svg>